<svg width="47" height="45" viewBox="0 0 47 45" fill="none" xmlns="http://www.w3.org/2000/svg">
<path fill-rule="evenodd" clip-rule="evenodd" d="M3.1167 19.46L9.24571 19.3656L12.9864 25.4011L13.7057 25.3696L13.7633 25.6525L20.7268 25.7467L23.5755 30.3675C23.7817 30.7835 24.1544 31.1817 23.9193 31.7822L10.4543 31.8136C10.4816 30.972 10.3012 30.4142 10.0225 29.9904L3.92233 20.0257L3.1167 19.46Z" fill="#6DBBFD" stroke="#6DBBFD" stroke-width="2.00827"/>
<path fill-rule="evenodd" clip-rule="evenodd" d="M23.8632 31.8766L17.2737 43.2558C17.1242 43.6293 16.893 43.646 16.6694 43.6958L2.85742 43.6016L3.00138 43.2243L3.86459 43.1614L10.2239 32.7567C10.4528 32.1686 10.4155 32.0654 10.4253 31.8766H23.8632ZM44.6492 31.8574L38.0598 43.2367C37.9102 43.6102 37.679 43.6268 37.4554 43.6767L23.6436 43.5825L23.7874 43.2052L24.6507 43.1423L31.01 32.7375C31.2388 32.1495 31.2015 32.0463 31.2114 31.8574H44.6492Z" fill="#016BBF" stroke="#016BBF" stroke-width="2.00827"/>
<path fill-rule="evenodd" clip-rule="evenodd" d="M30.0269 19.3428L37.4506 19.5366C39.2604 22.4782 39.2937 22.4783 41.508 25.7239L44.3567 30.3447C44.563 30.7607 44.9357 31.1589 44.7006 31.7594L31.2355 31.7908C31.263 30.9491 31.0825 30.3914 30.8039 29.9676C28.5698 26.6073 26.6213 23.559 24.1016 19.8867C25.9024 19.0942 28.0881 19.4194 30.027 19.3428H30.0269Z" fill="#6DBBFD" stroke="#6DBBFD" stroke-width="2.00827"/>
<path fill-rule="evenodd" clip-rule="evenodd" d="M20.085 1.51758L27.4009 1.71137C29.1844 4.65314 29.2173 4.65343 31.3996 7.89916L34.207 12.5204C34.4103 12.9362 34.7775 13.3345 34.5457 13.935L21.276 13.9665C21.303 13.1248 21.1252 12.5669 20.8507 12.1431C18.649 8.78259 16.7287 5.73413 14.2456 2.06155C16.0203 1.269 18.1743 1.59425 20.085 1.51758V1.51758Z" fill="#6DBBFD" stroke="#6DBBFD" stroke-width="1.99224"/>
</svg>
